<mxfile host="app.diagrams.net" modified="2020-08-10T13:00:37.851Z" agent="5.0 (Windows NT 10.0; WOW64) AppleWebKit/537.36 (KHTML, like Gecko) Chrome/69.0.3497.100 Safari/537.36" etag="bz6JDRMY0e3rRB9QItsp" version="13.6.2" type="github">
  <diagram id="641cPQ8JQ8hl0XvvgXvv" name="Page-1">
    <mxGraphModel dx="2315" dy="631" grid="1" gridSize="10" guides="1" tooltips="1" connect="1" arrows="1" fold="1" page="1" pageScale="1" pageWidth="827" pageHeight="1169" math="0" shadow="0">
      <root>
        <mxCell id="0" />
        <mxCell id="1" parent="0" />
        <mxCell id="fm3YVhQ5cz3TOtIgrWO4-1" value="Traversable" style="rounded=1;whiteSpace=wrap;html=1;fillColor=#b0e3e6;strokeColor=#0e8088;fontStyle=1" vertex="1" parent="1">
          <mxGeometry x="440" y="130" width="100" height="40" as="geometry" />
        </mxCell>
        <mxCell id="fm3YVhQ5cz3TOtIgrWO4-2" value="Iterable" style="rounded=1;whiteSpace=wrap;html=1;fillColor=#b0e3e6;strokeColor=#0e8088;fontSize=16;fontStyle=1" vertex="1" parent="1">
          <mxGeometry x="440" y="220" width="100" height="40" as="geometry" />
        </mxCell>
        <mxCell id="fm3YVhQ5cz3TOtIgrWO4-3" value="Set" style="rounded=1;whiteSpace=wrap;html=1;fillColor=#b0e3e6;strokeColor=#0e8088;fontSize=16;fontStyle=1" vertex="1" parent="1">
          <mxGeometry x="180" y="320" width="100" height="40" as="geometry" />
        </mxCell>
        <mxCell id="fm3YVhQ5cz3TOtIgrWO4-4" value="Map" style="rounded=1;whiteSpace=wrap;html=1;fillColor=#b0e3e6;strokeColor=#0e8088;fontSize=16;fontStyle=1" vertex="1" parent="1">
          <mxGeometry x="700" y="310" width="100" height="40" as="geometry" />
        </mxCell>
        <mxCell id="fm3YVhQ5cz3TOtIgrWO4-5" value="" style="endArrow=block;html=1;entryX=0.25;entryY=1;entryDx=0;entryDy=0;exitX=0.5;exitY=0;exitDx=0;exitDy=0;endFill=0;fontStyle=1" edge="1" parent="1" source="fm3YVhQ5cz3TOtIgrWO4-3" target="fm3YVhQ5cz3TOtIgrWO4-2">
          <mxGeometry width="50" height="50" relative="1" as="geometry">
            <mxPoint x="390" y="570" as="sourcePoint" />
            <mxPoint x="440" y="520" as="targetPoint" />
          </mxGeometry>
        </mxCell>
        <mxCell id="fm3YVhQ5cz3TOtIgrWO4-6" value="" style="endArrow=block;html=1;entryX=0.75;entryY=1;entryDx=0;entryDy=0;exitX=0.5;exitY=0;exitDx=0;exitDy=0;endFill=0;fontStyle=1" edge="1" parent="1" source="fm3YVhQ5cz3TOtIgrWO4-4" target="fm3YVhQ5cz3TOtIgrWO4-2">
          <mxGeometry width="50" height="50" relative="1" as="geometry">
            <mxPoint x="360" y="320" as="sourcePoint" />
            <mxPoint x="475" y="270" as="targetPoint" />
          </mxGeometry>
        </mxCell>
        <mxCell id="fm3YVhQ5cz3TOtIgrWO4-7" value="" style="endArrow=block;html=1;entryX=0.5;entryY=1;entryDx=0;entryDy=0;exitX=0.5;exitY=0;exitDx=0;exitDy=0;endFill=0;fontStyle=1" edge="1" parent="1" source="fm3YVhQ5cz3TOtIgrWO4-2" target="fm3YVhQ5cz3TOtIgrWO4-1">
          <mxGeometry width="50" height="50" relative="1" as="geometry">
            <mxPoint x="490" y="230" as="sourcePoint" />
            <mxPoint x="560" y="510" as="targetPoint" />
          </mxGeometry>
        </mxCell>
        <mxCell id="fm3YVhQ5cz3TOtIgrWO4-8" value="HashSet" style="rounded=1;whiteSpace=wrap;html=1;fillColor=#1ba1e2;strokeColor=#006EAF;fontColor=#ffffff;fontSize=16;fontStyle=1" vertex="1" parent="1">
          <mxGeometry x="-90" y="450" width="100" height="40" as="geometry" />
        </mxCell>
        <mxCell id="fm3YVhQ5cz3TOtIgrWO4-9" style="rounded=1;orthogonalLoop=1;jettySize=auto;html=1;exitX=0.5;exitY=0;exitDx=0;exitDy=0;entryX=0.25;entryY=1;entryDx=0;entryDy=0;endFill=0;endArrow=block;fontStyle=1" edge="1" parent="1" source="fm3YVhQ5cz3TOtIgrWO4-10" target="fm3YVhQ5cz3TOtIgrWO4-3">
          <mxGeometry relative="1" as="geometry" />
        </mxCell>
        <mxCell id="fm3YVhQ5cz3TOtIgrWO4-10" value="SortedSet" style="rounded=1;whiteSpace=wrap;html=1;fillColor=#b0e3e6;strokeColor=#0e8088;fontSize=16;fontStyle=1" vertex="1" parent="1">
          <mxGeometry x="40" y="450" width="100" height="40" as="geometry" />
        </mxCell>
        <mxCell id="fm3YVhQ5cz3TOtIgrWO4-11" style="edgeStyle=none;rounded=1;orthogonalLoop=1;jettySize=auto;html=1;exitX=0.5;exitY=0;exitDx=0;exitDy=0;entryX=0.5;entryY=1;entryDx=0;entryDy=0;dashed=1;endFill=0;endArrow=block;fontStyle=1" edge="1" parent="1" source="fm3YVhQ5cz3TOtIgrWO4-12" target="fm3YVhQ5cz3TOtIgrWO4-3">
          <mxGeometry relative="1" as="geometry">
            <mxPoint x="230" y="360" as="targetPoint" />
          </mxGeometry>
        </mxCell>
        <mxCell id="fm3YVhQ5cz3TOtIgrWO4-12" value="BitSet" style="rounded=1;whiteSpace=wrap;html=1;fillColor=#1ba1e2;strokeColor=#006EAF;fontColor=#ffffff;fontSize=16;fontStyle=1" vertex="1" parent="1">
          <mxGeometry x="180" y="450" width="100" height="40" as="geometry" />
        </mxCell>
        <mxCell id="fm3YVhQ5cz3TOtIgrWO4-13" style="edgeStyle=none;rounded=1;orthogonalLoop=1;jettySize=auto;html=1;exitX=0.5;exitY=0;exitDx=0;exitDy=0;entryX=1;entryY=1;entryDx=0;entryDy=0;dashed=1;endFill=0;endArrow=block;fontStyle=1" edge="1" parent="1" source="fm3YVhQ5cz3TOtIgrWO4-14" target="fm3YVhQ5cz3TOtIgrWO4-3">
          <mxGeometry relative="1" as="geometry" />
        </mxCell>
        <mxCell id="fm3YVhQ5cz3TOtIgrWO4-14" value="ListSet" style="rounded=1;whiteSpace=wrap;html=1;fillColor=#1ba1e2;strokeColor=#006EAF;fontColor=#ffffff;fontSize=16;fontStyle=1" vertex="1" parent="1">
          <mxGeometry x="320" y="450" width="100" height="40" as="geometry" />
        </mxCell>
        <mxCell id="fm3YVhQ5cz3TOtIgrWO4-15" value="" style="endArrow=block;html=1;entryX=0;entryY=1;entryDx=0;entryDy=0;exitX=0.5;exitY=0;exitDx=0;exitDy=0;endFill=0;dashed=1;fontStyle=1" edge="1" parent="1" source="fm3YVhQ5cz3TOtIgrWO4-8" target="fm3YVhQ5cz3TOtIgrWO4-3">
          <mxGeometry width="50" height="50" relative="1" as="geometry">
            <mxPoint x="-60" y="420" as="sourcePoint" />
            <mxPoint x="-10" y="370" as="targetPoint" />
          </mxGeometry>
        </mxCell>
        <mxCell id="fm3YVhQ5cz3TOtIgrWO4-16" style="edgeStyle=none;rounded=0;orthogonalLoop=1;jettySize=auto;html=1;exitX=0.5;exitY=0;exitDx=0;exitDy=0;entryX=0.5;entryY=1;entryDx=0;entryDy=0;fontStyle=1" edge="1" parent="1" source="fm3YVhQ5cz3TOtIgrWO4-18" target="fm3YVhQ5cz3TOtIgrWO4-10">
          <mxGeometry relative="1" as="geometry" />
        </mxCell>
        <mxCell id="fm3YVhQ5cz3TOtIgrWO4-17" value="" style="edgeStyle=orthogonalEdgeStyle;rounded=1;orthogonalLoop=1;jettySize=auto;html=1;dashed=1;endArrow=block;endFill=0;fontStyle=1" edge="1" parent="1" source="fm3YVhQ5cz3TOtIgrWO4-18" target="fm3YVhQ5cz3TOtIgrWO4-10">
          <mxGeometry relative="1" as="geometry" />
        </mxCell>
        <mxCell id="fm3YVhQ5cz3TOtIgrWO4-18" value="TreeSet" style="rounded=1;whiteSpace=wrap;html=1;fillColor=#1ba1e2;strokeColor=#006EAF;fontColor=#ffffff;fontSize=16;fontStyle=1" vertex="1" parent="1">
          <mxGeometry x="40" y="530" width="100" height="40" as="geometry" />
        </mxCell>
        <mxCell id="fm3YVhQ5cz3TOtIgrWO4-19" style="edgeStyle=none;rounded=1;orthogonalLoop=1;jettySize=auto;html=1;exitX=0.5;exitY=0;exitDx=0;exitDy=0;entryX=0.5;entryY=1;entryDx=0;entryDy=0;endFill=0;endArrow=block;fontStyle=1" edge="1" parent="1" source="fm3YVhQ5cz3TOtIgrWO4-20" target="fm3YVhQ5cz3TOtIgrWO4-2">
          <mxGeometry relative="1" as="geometry" />
        </mxCell>
        <mxCell id="fm3YVhQ5cz3TOtIgrWO4-20" value="Seq" style="rounded=1;whiteSpace=wrap;html=1;fillColor=#b0e3e6;strokeColor=#0e8088;fontSize=16;fontStyle=1" vertex="1" parent="1">
          <mxGeometry x="440" y="450" width="100" height="40" as="geometry" />
        </mxCell>
        <mxCell id="fm3YVhQ5cz3TOtIgrWO4-21" style="edgeStyle=none;rounded=1;orthogonalLoop=1;jettySize=auto;html=1;exitX=0.5;exitY=0;exitDx=0;exitDy=0;entryX=0.25;entryY=1;entryDx=0;entryDy=0;dashed=1;endFill=0;endArrow=block;fontStyle=1" edge="1" parent="1" source="fm3YVhQ5cz3TOtIgrWO4-22" target="fm3YVhQ5cz3TOtIgrWO4-4">
          <mxGeometry relative="1" as="geometry" />
        </mxCell>
        <mxCell id="fm3YVhQ5cz3TOtIgrWO4-22" value="HashMap" style="rounded=1;whiteSpace=wrap;html=1;fillColor=#1ba1e2;strokeColor=#006EAF;fontColor=#ffffff;fontSize=16;fontStyle=1" vertex="1" parent="1">
          <mxGeometry x="570" y="450" width="100" height="40" as="geometry" />
        </mxCell>
        <mxCell id="fm3YVhQ5cz3TOtIgrWO4-23" style="edgeStyle=none;rounded=1;orthogonalLoop=1;jettySize=auto;html=1;exitX=0.5;exitY=0;exitDx=0;exitDy=0;entryX=0.5;entryY=1;entryDx=0;entryDy=0;endFill=0;endArrow=block;fontStyle=1" edge="1" parent="1" source="fm3YVhQ5cz3TOtIgrWO4-24" target="fm3YVhQ5cz3TOtIgrWO4-4">
          <mxGeometry relative="1" as="geometry" />
        </mxCell>
        <mxCell id="fm3YVhQ5cz3TOtIgrWO4-24" value="SortedMap" style="rounded=1;whiteSpace=wrap;html=1;fillColor=#b0e3e6;strokeColor=#0e8088;fontSize=16;fontStyle=1" vertex="1" parent="1">
          <mxGeometry x="700" y="450" width="100" height="40" as="geometry" />
        </mxCell>
        <mxCell id="fm3YVhQ5cz3TOtIgrWO4-25" style="edgeStyle=none;rounded=1;orthogonalLoop=1;jettySize=auto;html=1;exitX=0.5;exitY=0;exitDx=0;exitDy=0;entryX=0.75;entryY=1;entryDx=0;entryDy=0;dashed=1;endFill=0;endArrow=block;fontStyle=1" edge="1" parent="1" source="fm3YVhQ5cz3TOtIgrWO4-26" target="fm3YVhQ5cz3TOtIgrWO4-4">
          <mxGeometry relative="1" as="geometry" />
        </mxCell>
        <mxCell id="fm3YVhQ5cz3TOtIgrWO4-26" value="ListMap" style="rounded=1;whiteSpace=wrap;html=1;fillColor=#1ba1e2;strokeColor=#006EAF;fontColor=#ffffff;fontSize=16;fontStyle=1" vertex="1" parent="1">
          <mxGeometry x="827" y="450" width="100" height="40" as="geometry" />
        </mxCell>
        <mxCell id="fm3YVhQ5cz3TOtIgrWO4-27" style="edgeStyle=none;rounded=1;orthogonalLoop=1;jettySize=auto;html=1;exitX=0.5;exitY=0;exitDx=0;exitDy=0;entryX=0.25;entryY=1;entryDx=0;entryDy=0;endFill=0;endArrow=block;fontStyle=1" edge="1" parent="1" source="fm3YVhQ5cz3TOtIgrWO4-28" target="fm3YVhQ5cz3TOtIgrWO4-20">
          <mxGeometry relative="1" as="geometry" />
        </mxCell>
        <mxCell id="fm3YVhQ5cz3TOtIgrWO4-28" value="IndexedSeq" style="rounded=1;whiteSpace=wrap;html=1;fillColor=#b0e3e6;strokeColor=#0e8088;fontStyle=1" vertex="1" parent="1">
          <mxGeometry x="340" y="600" width="100" height="40" as="geometry" />
        </mxCell>
        <mxCell id="fm3YVhQ5cz3TOtIgrWO4-29" style="edgeStyle=none;rounded=1;orthogonalLoop=1;jettySize=auto;html=1;exitX=0.5;exitY=0;exitDx=0;exitDy=0;entryX=0.75;entryY=1;entryDx=0;entryDy=0;endFill=0;endArrow=block;fontStyle=1" edge="1" parent="1" source="fm3YVhQ5cz3TOtIgrWO4-30" target="fm3YVhQ5cz3TOtIgrWO4-20">
          <mxGeometry relative="1" as="geometry" />
        </mxCell>
        <mxCell id="fm3YVhQ5cz3TOtIgrWO4-30" value="LinearSeq" style="rounded=1;whiteSpace=wrap;html=1;fillColor=#b0e3e6;strokeColor=#0e8088;fontSize=16;fontStyle=1" vertex="1" parent="1">
          <mxGeometry x="740" y="620" width="100" height="40" as="geometry" />
        </mxCell>
        <mxCell id="fm3YVhQ5cz3TOtIgrWO4-31" style="edgeStyle=none;rounded=1;orthogonalLoop=1;jettySize=auto;html=1;exitX=0.5;exitY=0;exitDx=0;exitDy=0;entryX=0;entryY=1;entryDx=0;entryDy=0;dashed=1;endFill=0;endArrow=block;fontStyle=1" edge="1" parent="1" source="fm3YVhQ5cz3TOtIgrWO4-32" target="fm3YVhQ5cz3TOtIgrWO4-28">
          <mxGeometry relative="1" as="geometry" />
        </mxCell>
        <mxCell id="fm3YVhQ5cz3TOtIgrWO4-32" value="Vector" style="rounded=1;whiteSpace=wrap;html=1;fillColor=#1ba1e2;strokeColor=#006EAF;fontColor=#ffffff;fontSize=16;fontStyle=1" vertex="1" parent="1">
          <mxGeometry x="150" y="690" width="70" height="40" as="geometry" />
        </mxCell>
        <mxCell id="fm3YVhQ5cz3TOtIgrWO4-33" style="edgeStyle=none;rounded=1;orthogonalLoop=1;jettySize=auto;html=1;exitX=0.5;exitY=0;exitDx=0;exitDy=0;entryX=0.25;entryY=1;entryDx=0;entryDy=0;dashed=1;endFill=0;endArrow=block;fontStyle=1" edge="1" parent="1" source="fm3YVhQ5cz3TOtIgrWO4-34" target="fm3YVhQ5cz3TOtIgrWO4-28">
          <mxGeometry relative="1" as="geometry" />
        </mxCell>
        <mxCell id="fm3YVhQ5cz3TOtIgrWO4-34" value="NumericRange" style="rounded=1;whiteSpace=wrap;html=1;fillColor=#1ba1e2;strokeColor=#006EAF;fontColor=#ffffff;fontSize=16;fontStyle=1" vertex="1" parent="1">
          <mxGeometry x="230" y="690" width="120" height="40" as="geometry" />
        </mxCell>
        <mxCell id="fm3YVhQ5cz3TOtIgrWO4-35" style="edgeStyle=none;rounded=1;orthogonalLoop=1;jettySize=auto;html=1;exitX=0.5;exitY=0;exitDx=0;exitDy=0;entryX=0.5;entryY=1;entryDx=0;entryDy=0;dashed=1;endFill=0;endArrow=block;fontStyle=1" edge="1" parent="1" source="fm3YVhQ5cz3TOtIgrWO4-36" target="fm3YVhQ5cz3TOtIgrWO4-28">
          <mxGeometry relative="1" as="geometry" />
        </mxCell>
        <mxCell id="fm3YVhQ5cz3TOtIgrWO4-36" value="Array" style="rounded=1;whiteSpace=wrap;html=1;fillColor=#1ba1e2;strokeColor=#006EAF;fontColor=#ffffff;fontSize=16;fontStyle=1" vertex="1" parent="1">
          <mxGeometry x="300" y="800" width="70" height="40" as="geometry" />
        </mxCell>
        <mxCell id="fm3YVhQ5cz3TOtIgrWO4-37" style="edgeStyle=none;rounded=1;orthogonalLoop=1;jettySize=auto;html=1;exitX=0.5;exitY=0;exitDx=0;exitDy=0;dashed=1;endFill=0;endArrow=block;fontStyle=1" edge="1" parent="1" source="fm3YVhQ5cz3TOtIgrWO4-38" target="fm3YVhQ5cz3TOtIgrWO4-28">
          <mxGeometry relative="1" as="geometry" />
        </mxCell>
        <mxCell id="fm3YVhQ5cz3TOtIgrWO4-38" value="String" style="rounded=1;whiteSpace=wrap;html=1;fillColor=#1ba1e2;strokeColor=#006EAF;fontColor=#ffffff;fontSize=16;fontStyle=1" vertex="1" parent="1">
          <mxGeometry x="440" y="800" width="70" height="40" as="geometry" />
        </mxCell>
        <mxCell id="fm3YVhQ5cz3TOtIgrWO4-39" style="edgeStyle=none;rounded=1;orthogonalLoop=1;jettySize=auto;html=1;exitX=0.25;exitY=0;exitDx=0;exitDy=0;entryX=0.75;entryY=1;entryDx=0;entryDy=0;dashed=1;endFill=0;endArrow=block;fontStyle=1" edge="1" parent="1" source="fm3YVhQ5cz3TOtIgrWO4-40" target="fm3YVhQ5cz3TOtIgrWO4-28">
          <mxGeometry relative="1" as="geometry" />
        </mxCell>
        <mxCell id="fm3YVhQ5cz3TOtIgrWO4-40" value="Range" style="rounded=1;whiteSpace=wrap;html=1;fillColor=#1ba1e2;strokeColor=#006EAF;fontColor=#ffffff;fontSize=16;fontStyle=1" vertex="1" parent="1">
          <mxGeometry x="480" y="690" width="70" height="40" as="geometry" />
        </mxCell>
        <mxCell id="fm3YVhQ5cz3TOtIgrWO4-41" style="edgeStyle=none;rounded=1;orthogonalLoop=1;jettySize=auto;html=1;exitX=0.5;exitY=0;exitDx=0;exitDy=0;entryX=0;entryY=1;entryDx=0;entryDy=0;dashed=1;endFill=0;endArrow=block;fontStyle=1" edge="1" parent="1" source="fm3YVhQ5cz3TOtIgrWO4-42" target="fm3YVhQ5cz3TOtIgrWO4-30">
          <mxGeometry relative="1" as="geometry" />
        </mxCell>
        <mxCell id="fm3YVhQ5cz3TOtIgrWO4-42" value="List" style="rounded=1;whiteSpace=wrap;html=1;fillColor=#1ba1e2;strokeColor=#006EAF;fontColor=#ffffff;fontSize=16;fontStyle=1" vertex="1" parent="1">
          <mxGeometry x="585" y="700" width="70" height="40" as="geometry" />
        </mxCell>
        <mxCell id="fm3YVhQ5cz3TOtIgrWO4-43" style="edgeStyle=none;rounded=1;orthogonalLoop=1;jettySize=auto;html=1;exitX=0.5;exitY=0;exitDx=0;exitDy=0;entryX=0.25;entryY=1;entryDx=0;entryDy=0;dashed=1;endFill=0;endArrow=block;fontStyle=1" edge="1" parent="1" source="fm3YVhQ5cz3TOtIgrWO4-44" target="fm3YVhQ5cz3TOtIgrWO4-30">
          <mxGeometry relative="1" as="geometry" />
        </mxCell>
        <mxCell id="fm3YVhQ5cz3TOtIgrWO4-44" value="Stream" style="rounded=1;whiteSpace=wrap;html=1;fillColor=#1ba1e2;strokeColor=#006EAF;fontColor=#ffffff;fontSize=16;fontStyle=1" vertex="1" parent="1">
          <mxGeometry x="680" y="700" width="70" height="40" as="geometry" />
        </mxCell>
        <mxCell id="fm3YVhQ5cz3TOtIgrWO4-45" style="edgeStyle=none;rounded=1;orthogonalLoop=1;jettySize=auto;html=1;exitX=0.5;exitY=0;exitDx=0;exitDy=0;entryX=0.5;entryY=1;entryDx=0;entryDy=0;dashed=1;endFill=0;endArrow=block;fontStyle=1" edge="1" parent="1" source="fm3YVhQ5cz3TOtIgrWO4-46" target="fm3YVhQ5cz3TOtIgrWO4-30">
          <mxGeometry relative="1" as="geometry" />
        </mxCell>
        <mxCell id="fm3YVhQ5cz3TOtIgrWO4-46" value="Queue" style="rounded=1;whiteSpace=wrap;html=1;fillColor=#1ba1e2;strokeColor=#006EAF;fontColor=#ffffff;fontSize=16;fontStyle=1" vertex="1" parent="1">
          <mxGeometry x="780" y="700" width="70" height="40" as="geometry" />
        </mxCell>
        <mxCell id="fm3YVhQ5cz3TOtIgrWO4-47" style="edgeStyle=none;rounded=1;orthogonalLoop=1;jettySize=auto;html=1;exitX=0.5;exitY=0;exitDx=0;exitDy=0;entryX=0.75;entryY=1;entryDx=0;entryDy=0;dashed=1;endFill=0;endArrow=block;fontStyle=1" edge="1" parent="1" source="fm3YVhQ5cz3TOtIgrWO4-48" target="fm3YVhQ5cz3TOtIgrWO4-30">
          <mxGeometry relative="1" as="geometry" />
        </mxCell>
        <mxCell id="fm3YVhQ5cz3TOtIgrWO4-48" value="Stack" style="rounded=1;whiteSpace=wrap;html=1;fillColor=#1ba1e2;strokeColor=#006EAF;fontColor=#ffffff;fontSize=16;fontStyle=1" vertex="1" parent="1">
          <mxGeometry x="890" y="700" width="70" height="40" as="geometry" />
        </mxCell>
        <mxCell id="fm3YVhQ5cz3TOtIgrWO4-49" style="edgeStyle=none;rounded=0;orthogonalLoop=1;jettySize=auto;html=1;exitX=0.5;exitY=0;exitDx=0;exitDy=0;fontStyle=1" edge="1" parent="1" source="fm3YVhQ5cz3TOtIgrWO4-50" target="fm3YVhQ5cz3TOtIgrWO4-24">
          <mxGeometry relative="1" as="geometry" />
        </mxCell>
        <mxCell id="fm3YVhQ5cz3TOtIgrWO4-50" value="TreeMap" style="rounded=1;whiteSpace=wrap;html=1;fillColor=#1ba1e2;strokeColor=#006EAF;fontColor=#ffffff;fontSize=16;fontStyle=1" vertex="1" parent="1">
          <mxGeometry x="700" y="520" width="100" height="40" as="geometry" />
        </mxCell>
        <mxCell id="fm3YVhQ5cz3TOtIgrWO4-51" value="Traversable" style="rounded=1;whiteSpace=wrap;html=1;fillColor=#b0e3e6;strokeColor=#0e8088;fontSize=16;fontStyle=1" vertex="1" parent="1">
          <mxGeometry x="440" y="130" width="100" height="40" as="geometry" />
        </mxCell>
        <mxCell id="fm3YVhQ5cz3TOtIgrWO4-52" value="IndexedSeq" style="rounded=1;whiteSpace=wrap;html=1;fillColor=#b0e3e6;strokeColor=#0e8088;fontSize=16;fontStyle=1" vertex="1" parent="1">
          <mxGeometry x="340" y="600" width="100" height="40" as="geometry" />
        </mxCell>
      </root>
    </mxGraphModel>
  </diagram>
</mxfile>
